<?xml version="1.0" encoding="utf-8"?>
<!-- Generator: Adobe Illustrator 25.2.0, SVG Export Plug-In . SVG Version: 6.00 Build 0)  -->
<svg version="1.1" id="Layer_1" xmlns="http://www.w3.org/2000/svg" xmlns:xlink="http://www.w3.org/1999/xlink" x="0px" y="0px"
	 viewBox="0 0 311.3 110.58" style="enable-background:new 0 0 311.3 110.58;" xml:space="preserve">
<style type="text/css">
	.st0{fill:#ffffff;}
</style>
<g>
	<path class="st0" d="M0,67.3h5.94c2.19,0,5.47,0.71,5.47,4.86c0,2.25-1.36,3.83-3.38,4.23v0.05c2.31,0.24,3.89,1.98,3.89,4.31
		c0,4.78-3.84,5.48-5.99,5.48H0V67.3z M3.41,74.96h1.39c1.44,0,3.21-0.35,3.21-2.31c0-2.2-1.73-2.36-3.28-2.36H3.41V74.96z
		 M3.41,83.26h1.61c1.58,0,3.5-0.43,3.5-2.63c0-2.47-1.8-2.85-3.5-2.85H3.41V83.26z"/>
	<path class="st0" d="M26.08,86.24h-3.09v-1.9h-0.05c-1,1.36-2.41,2.22-4.11,2.22c-2.97,0-4.26-2.33-4.26-5.48v-8.82h3.26v7.46
		c0,1.71,0.02,4.02,2.12,4.02c2.36,0,2.87-2.85,2.87-4.64v-6.84h3.26V86.24z"/>
	<path class="st0" d="M36.88,75.2c-1-0.38-1.73-0.6-2.92-0.6c-0.88,0-1.92,0.35-1.92,1.55c0,2.22,5.67,0.81,5.67,5.86c0,3.26-2.6,4.56-5.26,4.56
		c-1.24,0-2.51-0.24-3.7-0.6l0.19-2.98c1.02,0.57,2.09,0.92,3.21,0.92c0.83,0,2.14-0.35,2.14-1.71c0-2.74-5.67-0.87-5.67-5.92
		c0-3.01,2.36-4.34,4.92-4.34c1.53,0,2.53,0.27,3.55,0.52L36.88,75.2z"/>
	<path class="st0" d="M40.31,66.25h3.26v3.47h-3.26V66.25z M40.31,72.27h3.26v13.97h-3.26V72.27z"/>
	<path class="st0" d="M46.99,72.27h3.09v1.9h0.05c1.02-1.6,2.41-2.22,4.11-2.22c2.97,0,4.26,2.33,4.26,5.48v8.82h-3.26v-7.46
		c0-1.71-0.02-4.02-2.12-4.02c-2.36,0-2.87,2.85-2.87,4.64v6.84h-3.26V72.27z"/>
	<path class="st0" d="M71.91,85.46c-1.19,0.73-2.55,1.11-4.31,1.11c-4.14,0-6.55-2.66-6.55-7.24c0-4.04,1.92-7.38,5.82-7.38
		c4.65,0,5.96,3.55,5.96,8.44h-8.66c0.15,2.25,1.56,3.53,3.58,3.53c1.58,0,2.94-0.65,4.16-1.41V85.46z M69.72,77.89
		c-0.1-1.76-0.83-3.28-2.65-3.28c-1.82,0-2.75,1.41-2.9,3.28H69.72z"/>
	<path class="st0" d="M82.83,75.2c-1-0.38-1.73-0.6-2.92-0.6c-0.88,0-1.92,0.35-1.92,1.55c0,2.22,5.67,0.81,5.67,5.86c0,3.26-2.6,4.56-5.26,4.56
		c-1.24,0-2.51-0.24-3.7-0.6l0.19-2.98c1.02,0.57,2.09,0.92,3.21,0.92c0.83,0,2.14-0.35,2.14-1.71c0-2.74-5.67-0.87-5.67-5.92
		c0-3.01,2.36-4.34,4.92-4.34c1.53,0,2.53,0.27,3.55,0.52L82.83,75.2z"/>
	<path class="st0" d="M93.63,75.2c-1-0.38-1.73-0.6-2.92-0.6c-0.88,0-1.92,0.35-1.92,1.55c0,2.22,5.67,0.81,5.67,5.86c0,3.26-2.6,4.56-5.26,4.56
		c-1.24,0-2.51-0.24-3.7-0.6l0.19-2.98c1.02,0.57,2.09,0.92,3.21,0.92c0.83,0,2.14-0.35,2.14-1.71c0-2.74-5.67-0.87-5.67-5.92
		c0-3.01,2.36-4.34,4.92-4.34c1.53,0,2.53,0.27,3.55,0.52L93.63,75.2z"/>
	<path class="st0" d="M113.16,70.78c-1.07-0.52-2.26-0.81-3.46-0.81c-1.17,0-2.68,0.57-2.68,2.63c0,3.28,7.45,1.9,7.45,8.25
		c0,4.15-2.94,5.72-6.38,5.72c-1.85,0-2.68-0.27-4.36-0.73l0.32-3.42c1.17,0.7,2.51,1.17,3.84,1.17c1.29,0,3.02-0.73,3.02-2.44
		c0-3.61-7.45-2.12-7.45-8.38c0-4.23,2.94-5.78,5.94-5.78c1.46,0,2.82,0.22,4.06,0.68L113.16,70.78z"/>
	<path class="st0" d="M127.32,85.46c-1.19,0.73-2.55,1.11-4.31,1.11c-4.14,0-6.55-2.66-6.55-7.24c0-4.04,1.92-7.38,5.82-7.38
		c4.65,0,5.96,3.55,5.96,8.44h-8.66c0.15,2.25,1.56,3.53,3.58,3.53c1.58,0,2.94-0.65,4.16-1.41V85.46z M125.13,77.89
		c-0.1-1.76-0.83-3.28-2.65-3.28c-1.82,0-2.75,1.41-2.9,3.28H125.13z"/>
	<path class="st0" d="M130.86,72.27h2.9v3.17h0.05c0.15-1.3,1.48-3.5,3.43-3.5c0.32,0,0.66,0,1,0.11v3.66c-0.29-0.19-0.88-0.3-1.46-0.3
		c-2.65,0-2.65,3.69-2.65,5.7v5.13h-3.26V72.27z"/>
	<path class="st0" d="M138.87,72.27h3.5l3.11,10.18h0.05l3.02-10.18h3.26l-4.62,13.97h-3.67L138.87,72.27z"/>
	<path class="st0" d="M153.85,66.25h3.26v3.47h-3.26V66.25z M153.85,72.27h3.26v13.97h-3.26V72.27z"/>
	<path class="st0" d="M168.67,75.28c-0.58-0.3-1.22-0.52-2.21-0.52c-2.02,0-3.31,1.79-3.31,4.42c0,2.58,1.1,4.56,3.38,4.56
		c0.92,0,1.95-0.38,2.51-0.65l0.15,3.01c-0.95,0.33-1.92,0.46-3.26,0.46c-4.11,0-6.18-3.12-6.18-7.38c0-4.04,2.14-7.24,6.06-7.24
		c1.31,0,2.26,0.16,3.16,0.46L168.67,75.28z"/>
	<path class="st0" d="M181.39,85.46c-1.19,0.73-2.55,1.11-4.31,1.11c-4.14,0-6.55-2.66-6.55-7.24c0-4.04,1.92-7.38,5.82-7.38
		c4.65,0,5.96,3.55,5.96,8.44h-8.66c0.15,2.25,1.56,3.53,3.58,3.53c1.58,0,2.94-0.65,4.16-1.41V85.46z M179.2,77.89
		c-0.1-1.76-0.83-3.28-2.65-3.28c-1.82,0-2.75,1.41-2.9,3.28H179.2z"/>
	<path class="st0" d="M192.31,75.2c-1-0.38-1.73-0.6-2.92-0.6c-0.88,0-1.92,0.35-1.92,1.55c0,2.22,5.67,0.81,5.67,5.86
		c0,3.26-2.6,4.56-5.26,4.56c-1.24,0-2.51-0.24-3.7-0.6l0.19-2.98c1.02,0.57,2.09,0.92,3.21,0.92c0.83,0,2.14-0.35,2.14-1.71
		c0-2.74-5.67-0.87-5.67-5.92c0-3.01,2.36-4.34,4.92-4.34c1.53,0,2.53,0.27,3.55,0.52L192.31,75.2z"/>
	<path class="st0" d="M207.59,67.3h3.84l6.67,18.94h-3.77l-1.46-4.34h-6.89l-1.48,4.34h-3.53L207.59,67.3z M209.46,71.1h-0.05l-2.46,7.81h4.96
		L209.46,71.1z"/>
	<path class="st0" d="M231.5,86.24h-3.09v-1.9h-0.05c-1,1.36-2.41,2.22-4.11,2.22c-2.97,0-4.26-2.33-4.26-5.48v-8.82h3.26v7.46
		c0,1.71,0.02,4.02,2.12,4.02c2.36,0,2.87-2.85,2.87-4.64v-6.84h3.26V86.24z"/>
	<path class="st0" d="M235.92,74.93h-2.41v-2.66h2.41v-2.79l3.26-1.17v3.96h2.9v2.66h-2.9v6.51c0,1.19,0.29,2.31,1.53,2.31
		c0.58,0,1.14-0.14,1.48-0.38l0.1,2.88c-0.68,0.22-1.44,0.33-2.41,0.33c-2.55,0-3.97-1.76-3.97-4.53V74.93z"/>
	<path class="st0" d="M244.31,65.89h3.26v8.28h0.05c0.83-1.36,2.24-2.22,3.94-2.22c2.97,0,4.26,2.33,4.26,5.48v8.82h-3.26v-7.46
		c0-1.71-0.02-4.02-2.12-4.02c-2.36,0-2.87,2.85-2.87,4.64v6.84h-3.26V65.89z"/>
	<path class="st0" d="M264.92,71.94c3.72,0,6.57,2.79,6.57,7.41c0,4.02-2.41,7.22-6.57,7.22c-4.14,0-6.55-3.2-6.55-7.22
		C258.37,74.74,261.22,71.94,264.92,71.94z M264.92,83.75c2.51,0,3.16-2.5,3.16-4.83c0-2.14-1.02-4.15-3.16-4.15
		c-2.12,0-3.14,2.06-3.14,4.15C261.78,81.22,262.44,83.75,264.92,83.75z"/>
	<path class="st0" d="M274.11,72.27h2.9v3.17h0.05c0.15-1.3,1.48-3.5,3.43-3.5c0.32,0,0.66,0,1,0.11v3.66c-0.29-0.19-0.88-0.3-1.46-0.3
		c-2.65,0-2.65,3.69-2.65,5.7v5.13h-3.26V72.27z"/>
	<path class="st0" d="M283.57,66.25h3.26v3.47h-3.26V66.25z M283.57,72.27h3.26v13.97h-3.26V72.27z"/>
	<path class="st0" d="M291.33,74.93h-2.41v-2.66h2.41v-2.79l3.26-1.17v3.96h2.9v2.66h-2.9v6.51c0,1.19,0.29,2.31,1.53,2.31
		c0.58,0,1.14-0.14,1.48-0.38l0.1,2.88c-0.68,0.22-1.44,0.33-2.41,0.33c-2.55,0-3.97-1.76-3.97-4.53V74.93z"/>
	<path class="st0" d="M304.93,82.47h0.05l3.02-10.2h3.31l-4.7,13.87c-1.05,3.09-1.8,6.13-5.21,6.13c-0.78,0-1.56-0.14-2.31-0.38l0.22-2.69
		c0.41,0.16,0.88,0.24,1.68,0.24c1.31,0,2.12-1,2.12-2.5l-4.79-14.68h3.6L304.93,82.47z"/>
</g>
<path class="st0" d="M311.18,55.71V17.27h-85.61v38.44H311.18L311.18,55.71z M259.99,20.98l-5.91,30.94h-9.27l-5.83-21.41h-0.08
	l-3.88,21.41h-7.03l5.96-30.94h9.31l5.72,21.46h0.08l3.92-21.46H259.99L259.99,20.98z M286.52,20.98l-5.79,30.94h-7.47l2.48-13.25
	h-8.83l-2.48,13.25h-7.47l5.79-30.94h7.47l-2.19,11.84h8.83l2.2-11.84H286.52L286.52,20.98z M307.98,21.82l-1.8,6.16
	c-1.44-0.75-3.4-1.42-6.15-1.42c-2.95,0-5.35,0.48-5.35,2.97c0,4.39,10.83,2.75,10.83,12.15c0,8.55-7.15,10.77-13.63,10.77
	c-2.88,0-6.19-0.76-8.63-1.6l1.76-6.3c1.47,1.07,4.44,1.78,6.87,1.78c2.32,0,5.95-0.49,5.95-3.68c0-4.97-10.83-3.1-10.83-11.83
	c0-7.98,6.31-10.38,12.43-10.38C302.86,20.45,306.1,20.85,307.98,21.82L307.98,21.82z"/>
</svg>
